<?xml version="1.0" standalone="no"?>
<!DOCTYPE svg PUBLIC "-//W3C//DTD SVG 20010904//EN"
 "http://www.w3.org/TR/2001/REC-SVG-20010904/DTD/svg10.dtd">
<svg version="1.0" xmlns="http://www.w3.org/2000/svg"
 width="270.000000pt" height="270.000000pt" viewBox="0 0 270.000000 270.000000"
 preserveAspectRatio="xMidYMid meet">
<metadata>
Created by potrace 1.11, written by Peter Selinger 2001-2013
</metadata>
<g transform="translate(0.000000,270.000000) scale(0.100000,-0.100000)"
fill="#000000" stroke="none">
<path d="M56 2639 l-26 -20 0 -1270 c0 -1256 0 -1269 20 -1289 20 -20 33 -20
1303 -20 1234 0 1285 1 1301 18 15 17 16 119 16 1293 l0 1274 -21 18 c-20 16
-97 17 -1294 17 -1272 0 -1272 0 -1299 -21z m1319 -198 c49 -22 99 -77 115
-127 12 -36 10 -157 -6 -306 -6 -54 -5 -59 23 -86 37 -38 122 -57 216 -49 81
7 140 37 162 83 21 44 19 67 -11 149 -43 118 -44 109 8 102 53 -7 79 7 98 53
l13 31 36 -35 c52 -51 73 -48 159 26 38 32 76 38 68 11 -11 -38 -25 -187 -32
-338 -9 -194 -13 -201 -119 -216 -38 -5 -78 -12 -87 -15 -26 -8 -23 -49 11
-151 64 -189 60 -324 -16 -556 -4 -11 0 -17 11 -17 10 0 48 -7 85 -16 91 -20
149 -58 161 -104 11 -44 30 -301 30 -414 l0 -86 -32 20 c-46 28 -83 25 -150
-10 l-57 -30 -12 42 c-7 24 -14 44 -15 46 -1 2 -20 -6 -43 -17 -22 -12 -45
-21 -52 -21 -24 0 1 74 51 147 27 41 50 79 50 84 0 16 -46 82 -77 111 -37 36
-103 48 -250 48 -152 0 -167 -7 -228 -113 -60 -103 -155 -197 -264 -261 -45
-26 -84 -46 -87 -44 -4 5 20 67 76 198 39 90 44 155 15 177 -16 12 -39 14
-120 8 -135 -8 -394 -43 -428 -57 -62 -24 -61 -64 3 -189 58 -113 65 -100 -67
-119 -68 -9 -74 -9 -120 16 -52 27 -90 27 -146 -3 -16 -8 -31 -12 -33 -10 -3
3 18 81 46 173 28 93 60 208 71 256 13 53 28 93 40 104 16 15 48 19 192 25 94
4 173 8 175 8 2 1 -13 20 -32 44 -82 100 -106 198 -106 437 0 85 -5 173 -11
195 -15 54 -74 110 -129 124 -114 29 -178 84 -205 173 -20 68 -38 243 -29 292
12 78 31 91 88 61 39 -21 96 -18 126 5 35 27 40 25 40 -18 0 -52 14 -62 87
-62 98 0 123 -40 88 -140 -22 -63 -19 -82 18 -107 79 -54 126 -67 242 -67 94
-1 117 3 157 22 l48 23 -41 54 c-68 90 -95 214 -67 306 14 48 72 117 112 135
43 19 104 17 151 -5z m-1173 -406 c0 -5 -5 -11 -11 -13 -6 -2 -11 4 -11 13 0
9 5 15 11 13 6 -2 11 -8 11 -13z m1935 -981 c9 -23 -11 -38 -26 -20 -13 16 -7
36 10 36 5 0 12 -7 16 -16z m-2022 -955 c10 -15 -1 -23 -20 -15 -9 3 -13 10
-10 16 8 13 22 13 30 -1z"/>
<path d="M1501 1727 c-9 -17 -9 -97 3 -370 8 -192 17 -351 20 -354 3 -4 17 -1
30 5 44 20 47 56 37 358 -10 280 -19 348 -50 371 -22 17 -26 16 -40 -10z"/>
<path d="M1196 1700 c-19 -23 -26 -43 -26 -73 1 -79 38 -542 45 -560 4 -10 19
-23 32 -28 55 -21 53 -27 53 219 0 305 -16 421 -63 461 -12 9 -20 6 -41 -19z"/>
<path d="M1750 1338 l0 -292 41 39 c22 22 54 68 71 103 27 55 32 75 32 145 1
58 -5 97 -18 132 -23 59 -70 129 -103 150 l-23 15 0 -292z"/>
<path d="M923 1534 c-83 -157 -52 -345 73 -440 19 -15 37 -25 39 -22 3 2 -5
28 -16 57 -35 92 -50 182 -57 326 l-7 139 -32 -60z"/>
</g>
</svg>
